<?xml version="1.0" encoding="UTF-8" standalone="no"?>
<!DOCTYPE svg PUBLIC "-//W3C//DTD SVG 1.1//EN" "http://www.w3.org/Graphics/SVG/1.1/DTD/svg11.dtd">
<svg width="100%" height="100%" viewBox="0 0 178 178" version="1.1" xmlns="http://www.w3.org/2000/svg" xmlns:xlink="http://www.w3.org/1999/xlink" xml:space="preserve" xmlns:serif="http://www.serif.com/" style="fill-rule:evenodd;clip-rule:evenodd;stroke-linejoin:round;stroke-miterlimit:2;">
    <g transform="matrix(1.30027,0,0,1.30027,36.3644,10.7398)">
        <g transform="matrix(0.214696,0,0,0.214696,-317.934,-178.583)">
            <rect x="1667.97" y="979.481" width="308.325" height="308.325" style="fill:rgb(19,41,61);"/>
        </g>
        <path d="M40.173,31.708L106.369,97.904L106.369,31.708L40.173,31.708Z" style="fill:rgb(39,74,106);"/>
        <g transform="matrix(0.0763993,-0.0763993,0.0763993,0.0763993,-185.646,126.948)">
            <path d="M1667.97,979.481C1667.97,894.396 1737.05,825.319 1822.13,825.319C1907.22,825.319 1976.3,894.396 1976.3,979.481C2061.38,979.481 2130.46,1048.56 2130.46,1133.64C2130.46,1218.73 2061.38,1287.81 1976.3,1287.81L1667.97,1287.81L1667.97,979.481Z" style="fill:rgb(209,73,91);"/>
        </g>
        <g transform="matrix(0.0763993,0.0763993,-0.0763993,0.0763993,-12.4275,-151.471)">
            <path d="M1976.3,1287.81L1667.97,979.481L1667.97,1287.81L1976.3,1287.81Z" style="fill:rgb(244,91,105);"/>
        </g>
        <g transform="matrix(-0.0763993,-0.0763993,-0.0763993,0.0763993,265.992,126.948)">
            <path d="M1667.97,1287.81L1667.97,979.481C1667.97,894.396 1737.05,825.319 1822.13,825.319C1907.22,825.319 1976.3,894.396 1976.3,979.481L1667.97,1287.81Z" style="fill:rgb(209,73,91);"/>
        </g>
    </g>
</svg>
