<?xml version="1.0" encoding="UTF-8" standalone="no"?>
<!DOCTYPE svg PUBLIC "-//W3C//DTD SVG 1.1//EN" "http://www.w3.org/Graphics/SVG/1.1/DTD/svg11.dtd">
<svg width="100%" height="100%" viewBox="0 0 178 178" version="1.1" xmlns="http://www.w3.org/2000/svg" xmlns:xlink="http://www.w3.org/1999/xlink" xml:space="preserve" xmlns:serif="http://www.serif.com/" style="fill-rule:evenodd;clip-rule:evenodd;stroke-linejoin:round;stroke-miterlimit:2;">
    <g transform="matrix(1.30027,0,0,1.30027,36.6202,21.8096)">
        <g>
            <g transform="matrix(0.299878,0,0,0.299878,-486.278,-288.281)">
                <rect x="1667.97" y="979.481" width="308.325" height="308.325" style="fill:none;stroke:rgb(246,246,246);stroke-width:8.98px;"/>
            </g>
            <g transform="matrix(1.39675,0,0,1.39675,-42.2023,-38.8441)">
                <path d="M68.593,60.128L106.369,97.904L106.369,31.708L40.173,31.708L54.216,45.751" style="fill:none;stroke:rgb(246,246,246);stroke-width:1.93px;"/>
            </g>
            <g transform="matrix(0.106711,-0.106711,0.106711,0.106711,-301.504,138.471)">
                <path d="M1667.97,979.481C1667.97,894.396 1737.05,825.319 1822.13,825.319C1907.22,825.319 1976.3,894.396 1976.3,979.481C2061.38,979.481 2130.46,1048.56 2130.46,1133.64C2130.46,1218.73 2061.38,1287.81 1976.3,1287.81L1667.97,1287.81L1667.97,979.481Z" style="fill:none;stroke:rgb(246,246,246);stroke-width:17.84px;"/>
            </g>
            <g transform="matrix(0.106711,0.106711,-0.106711,0.106711,-59.5605,-250.412)">
                <path d="M1976.3,1287.81L1667.97,979.481L1667.97,1287.81L1976.3,1287.81Z" style="fill:none;stroke:rgb(246,246,246);stroke-width:17.84px;"/>
            </g>
            <g transform="matrix(-0.106711,-0.106711,-0.106711,0.106711,329.323,138.471)">
                <path d="M1667.97,1287.81L1667.97,979.481C1667.97,894.396 1737.05,825.319 1822.13,825.319C1907.22,825.319 1976.3,894.396 1976.3,979.481L1667.97,1287.81Z" style="fill:none;stroke:rgb(246,246,246);stroke-width:17.84px;"/>
            </g>
        </g>
    </g>
</svg>
